<mxfile host="Electron" agent="Mozilla/5.0 (Windows NT 10.0; Win64; x64) AppleWebKit/537.36 (KHTML, like Gecko) draw.io/28.1.2 Chrome/138.0.7204.243 Electron/37.4.0 Safari/537.36" version="28.1.2">
  <diagram name="Page-1" id="xf4Xl27W-g-GOYY_3urP">
    <mxGraphModel dx="3087" dy="2459" grid="1" gridSize="10" guides="1" tooltips="1" connect="1" arrows="1" fold="1" page="1" pageScale="1" pageWidth="827" pageHeight="1169" math="0" shadow="0">
      <root>
        <mxCell id="0" />
        <mxCell id="1" parent="0" />
        <mxCell id="_rVcD1gw7nrnVvytm9UZ-27" value="book" style="swimlane;fontStyle=0;childLayout=stackLayout;horizontal=1;startSize=30;horizontalStack=0;resizeParent=1;resizeParentMax=0;resizeLast=0;collapsible=1;marginBottom=0;whiteSpace=wrap;html=1;" vertex="1" parent="1">
          <mxGeometry x="274" y="35" width="140" height="90" as="geometry" />
        </mxCell>
        <mxCell id="_rVcD1gw7nrnVvytm9UZ-29" value="magazine&amp;nbsp;" style="text;strokeColor=none;fillColor=none;align=left;verticalAlign=middle;spacingLeft=4;spacingRight=4;overflow=hidden;points=[[0,0.5],[1,0.5]];portConstraint=eastwest;rotatable=0;whiteSpace=wrap;html=1;" vertex="1" parent="_rVcD1gw7nrnVvytm9UZ-27">
          <mxGeometry y="30" width="140" height="30" as="geometry" />
        </mxCell>
        <mxCell id="_rVcD1gw7nrnVvytm9UZ-30" value="study&amp;nbsp;" style="text;strokeColor=none;fillColor=none;align=left;verticalAlign=middle;spacingLeft=4;spacingRight=4;overflow=hidden;points=[[0,0.5],[1,0.5]];portConstraint=eastwest;rotatable=0;whiteSpace=wrap;html=1;" vertex="1" parent="_rVcD1gw7nrnVvytm9UZ-27">
          <mxGeometry y="60" width="140" height="30" as="geometry" />
        </mxCell>
        <mxCell id="_rVcD1gw7nrnVvytm9UZ-31" value="library" style="swimlane;fontStyle=0;childLayout=stackLayout;horizontal=1;startSize=30;horizontalStack=0;resizeParent=1;resizeParentMax=0;resizeLast=0;collapsible=1;marginBottom=0;whiteSpace=wrap;html=1;" vertex="1" parent="1">
          <mxGeometry x="50" y="50" width="140" height="60" as="geometry" />
        </mxCell>
        <mxCell id="_rVcD1gw7nrnVvytm9UZ-35" value="" style="endArrow=diamond;html=1;rounded=0;endFill=0;exitX=0;exitY=0.5;exitDx=0;exitDy=0;entryX=1;entryY=0.5;entryDx=0;entryDy=0;" edge="1" parent="1" source="_rVcD1gw7nrnVvytm9UZ-29" target="_rVcD1gw7nrnVvytm9UZ-31">
          <mxGeometry width="50" height="50" relative="1" as="geometry">
            <mxPoint x="190" y="280" as="sourcePoint" />
            <mxPoint x="240" y="230" as="targetPoint" />
          </mxGeometry>
        </mxCell>
        <mxCell id="_rVcD1gw7nrnVvytm9UZ-36" value="member" style="swimlane;fontStyle=0;childLayout=stackLayout;horizontal=1;startSize=30;horizontalStack=0;resizeParent=1;resizeParentMax=0;resizeLast=0;collapsible=1;marginBottom=0;whiteSpace=wrap;html=1;" vertex="1" parent="1">
          <mxGeometry x="530" y="50" width="140" height="60" as="geometry" />
        </mxCell>
        <mxCell id="_rVcD1gw7nrnVvytm9UZ-40" value="" style="endArrow=none;html=1;rounded=0;exitX=1;exitY=0.5;exitDx=0;exitDy=0;entryX=0;entryY=0.5;entryDx=0;entryDy=0;" edge="1" parent="1" source="_rVcD1gw7nrnVvytm9UZ-29" target="_rVcD1gw7nrnVvytm9UZ-36">
          <mxGeometry width="50" height="50" relative="1" as="geometry">
            <mxPoint x="540" y="280" as="sourcePoint" />
            <mxPoint x="590" y="230" as="targetPoint" />
          </mxGeometry>
        </mxCell>
        <mxCell id="_rVcD1gw7nrnVvytm9UZ-41" value="&lt;font style=&quot;font-size: 16px;&quot;&gt;*&lt;/font&gt;" style="text;html=1;align=center;verticalAlign=middle;whiteSpace=wrap;rounded=0;" vertex="1" parent="1">
          <mxGeometry x="390" y="80" width="60" height="30" as="geometry" />
        </mxCell>
        <mxCell id="_rVcD1gw7nrnVvytm9UZ-45" value="borrow" style="text;html=1;align=center;verticalAlign=middle;whiteSpace=wrap;rounded=0;" vertex="1" parent="1">
          <mxGeometry x="440" y="50" width="60" height="30" as="geometry" />
        </mxCell>
        <mxCell id="_rVcD1gw7nrnVvytm9UZ-46" value="books" style="text;html=1;align=center;verticalAlign=middle;resizable=0;points=[];autosize=1;strokeColor=none;fillColor=none;" vertex="1" parent="1">
          <mxGeometry x="80" y="78" width="60" height="30" as="geometry" />
        </mxCell>
        <mxCell id="_rVcD1gw7nrnVvytm9UZ-47" value="" style="endArrow=none;dashed=1;html=1;dashPattern=1 3;strokeWidth=2;rounded=0;entryX=0.658;entryY=0.981;entryDx=0;entryDy=0;entryPerimeter=0;" edge="1" parent="1" target="_rVcD1gw7nrnVvytm9UZ-45">
          <mxGeometry width="50" height="50" relative="1" as="geometry">
            <mxPoint x="480" y="190" as="sourcePoint" />
            <mxPoint x="480" y="90" as="targetPoint" />
          </mxGeometry>
        </mxCell>
        <mxCell id="_rVcD1gw7nrnVvytm9UZ-56" value="loan record" style="swimlane;fontStyle=0;childLayout=stackLayout;horizontal=1;startSize=30;horizontalStack=0;resizeParent=1;resizeParentMax=0;resizeLast=0;collapsible=1;marginBottom=0;whiteSpace=wrap;html=1;" vertex="1" parent="1">
          <mxGeometry x="414" y="190" width="140" height="90" as="geometry" />
        </mxCell>
        <mxCell id="_rVcD1gw7nrnVvytm9UZ-57" value="borrowing date" style="text;strokeColor=none;fillColor=none;align=left;verticalAlign=middle;spacingLeft=4;spacingRight=4;overflow=hidden;points=[[0,0.5],[1,0.5]];portConstraint=eastwest;rotatable=0;whiteSpace=wrap;html=1;" vertex="1" parent="_rVcD1gw7nrnVvytm9UZ-56">
          <mxGeometry y="30" width="140" height="30" as="geometry" />
        </mxCell>
        <mxCell id="_rVcD1gw7nrnVvytm9UZ-58" value="returning date" style="text;strokeColor=none;fillColor=none;align=left;verticalAlign=middle;spacingLeft=4;spacingRight=4;overflow=hidden;points=[[0,0.5],[1,0.5]];portConstraint=eastwest;rotatable=0;whiteSpace=wrap;html=1;" vertex="1" parent="_rVcD1gw7nrnVvytm9UZ-56">
          <mxGeometry y="60" width="140" height="30" as="geometry" />
        </mxCell>
        <mxCell id="_rVcD1gw7nrnVvytm9UZ-60" value="&lt;h1&gt;&lt;font style=&quot;font-size: 18px;&quot;&gt;&lt;u style=&quot;&quot;&gt;&lt;i style=&quot;&quot;&gt;exercise 1&lt;/i&gt;&lt;/u&gt;&lt;/font&gt;&lt;/h1&gt;" style="text;html=1;align=center;verticalAlign=middle;whiteSpace=wrap;rounded=0;" vertex="1" parent="1">
          <mxGeometry x="-20" y="-20" width="130" height="70" as="geometry" />
        </mxCell>
        <mxCell id="_rVcD1gw7nrnVvytm9UZ-61" value="&lt;h3&gt;&lt;u&gt;library&lt;/u&gt;&lt;/h3&gt;" style="text;html=1;align=center;verticalAlign=middle;whiteSpace=wrap;rounded=0;" vertex="1" parent="1">
          <mxGeometry x="190" y="5" width="60" height="30" as="geometry" />
        </mxCell>
        <mxCell id="_rVcD1gw7nrnVvytm9UZ-62" value="&lt;h3&gt;&lt;u&gt;laptops&lt;/u&gt;&lt;/h3&gt;" style="text;html=1;align=center;verticalAlign=middle;whiteSpace=wrap;rounded=0;" vertex="1" parent="1">
          <mxGeometry x="210" y="320" width="60" height="30" as="geometry" />
        </mxCell>
        <mxCell id="_rVcD1gw7nrnVvytm9UZ-63" value="laptop" style="swimlane;fontStyle=0;childLayout=stackLayout;horizontal=1;startSize=30;horizontalStack=0;resizeParent=1;resizeParentMax=0;resizeLast=0;collapsible=1;marginBottom=0;whiteSpace=wrap;html=1;" vertex="1" parent="1">
          <mxGeometry x="230" y="400" width="140" height="60" as="geometry" />
        </mxCell>
        <mxCell id="_rVcD1gw7nrnVvytm9UZ-64" value="purchace price" style="text;strokeColor=none;fillColor=none;align=left;verticalAlign=middle;spacingLeft=4;spacingRight=4;overflow=hidden;points=[[0,0.5],[1,0.5]];portConstraint=eastwest;rotatable=0;whiteSpace=wrap;html=1;" vertex="1" parent="_rVcD1gw7nrnVvytm9UZ-63">
          <mxGeometry y="30" width="140" height="30" as="geometry" />
        </mxCell>
        <mxCell id="_rVcD1gw7nrnVvytm9UZ-68" value="keybord" style="swimlane;fontStyle=0;childLayout=stackLayout;horizontal=1;startSize=30;horizontalStack=0;resizeParent=1;resizeParentMax=0;resizeLast=0;collapsible=1;marginBottom=0;whiteSpace=wrap;html=1;" vertex="1" parent="1">
          <mxGeometry x="540" y="400" width="140" height="60" as="geometry" />
        </mxCell>
        <mxCell id="_rVcD1gw7nrnVvytm9UZ-71" value="keys" style="text;strokeColor=none;fillColor=none;align=left;verticalAlign=middle;spacingLeft=4;spacingRight=4;overflow=hidden;points=[[0,0.5],[1,0.5]];portConstraint=eastwest;rotatable=0;whiteSpace=wrap;html=1;" vertex="1" parent="_rVcD1gw7nrnVvytm9UZ-68">
          <mxGeometry y="30" width="140" height="30" as="geometry" />
        </mxCell>
        <mxCell id="_rVcD1gw7nrnVvytm9UZ-72" value="" style="endArrow=diamondThin;html=1;rounded=0;entryX=0.983;entryY=0.254;entryDx=0;entryDy=0;entryPerimeter=0;endFill=1;" edge="1" parent="1" target="_rVcD1gw7nrnVvytm9UZ-64">
          <mxGeometry width="50" height="50" relative="1" as="geometry">
            <mxPoint x="540" y="438" as="sourcePoint" />
            <mxPoint x="260" y="240" as="targetPoint" />
          </mxGeometry>
        </mxCell>
        <mxCell id="_rVcD1gw7nrnVvytm9UZ-73" value="owner" style="swimlane;fontStyle=0;childLayout=stackLayout;horizontal=1;startSize=30;horizontalStack=0;resizeParent=1;resizeParentMax=0;resizeLast=0;collapsible=1;marginBottom=0;whiteSpace=wrap;html=1;" vertex="1" parent="1">
          <mxGeometry x="10" y="400" width="140" height="90" as="geometry" />
        </mxCell>
        <mxCell id="_rVcD1gw7nrnVvytm9UZ-74" value="first name" style="text;strokeColor=none;fillColor=none;align=left;verticalAlign=middle;spacingLeft=4;spacingRight=4;overflow=hidden;points=[[0,0.5],[1,0.5]];portConstraint=eastwest;rotatable=0;whiteSpace=wrap;html=1;" vertex="1" parent="_rVcD1gw7nrnVvytm9UZ-73">
          <mxGeometry y="30" width="140" height="30" as="geometry" />
        </mxCell>
        <mxCell id="_rVcD1gw7nrnVvytm9UZ-76" value="last name" style="text;strokeColor=none;fillColor=none;align=left;verticalAlign=middle;spacingLeft=4;spacingRight=4;overflow=hidden;points=[[0,0.5],[1,0.5]];portConstraint=eastwest;rotatable=0;whiteSpace=wrap;html=1;" vertex="1" parent="_rVcD1gw7nrnVvytm9UZ-73">
          <mxGeometry y="60" width="140" height="30" as="geometry" />
        </mxCell>
        <mxCell id="_rVcD1gw7nrnVvytm9UZ-77" value="" style="endArrow=none;html=1;rounded=0;exitX=1;exitY=0.5;exitDx=0;exitDy=0;" edge="1" parent="1" source="_rVcD1gw7nrnVvytm9UZ-74" target="_rVcD1gw7nrnVvytm9UZ-64">
          <mxGeometry width="50" height="50" relative="1" as="geometry">
            <mxPoint x="170" y="490" as="sourcePoint" />
            <mxPoint x="220" y="440" as="targetPoint" />
          </mxGeometry>
        </mxCell>
        <mxCell id="_rVcD1gw7nrnVvytm9UZ-78" value="owns" style="text;html=1;align=center;verticalAlign=middle;resizable=0;points=[];autosize=1;strokeColor=none;fillColor=none;" vertex="1" parent="1">
          <mxGeometry x="170" y="408" width="50" height="30" as="geometry" />
        </mxCell>
        <mxCell id="_rVcD1gw7nrnVvytm9UZ-79" value="&amp;nbsp; 0..1" style="text;html=1;align=center;verticalAlign=middle;resizable=0;points=[];autosize=1;strokeColor=none;fillColor=none;" vertex="1" parent="1">
          <mxGeometry x="135" y="420" width="50" height="30" as="geometry" />
        </mxCell>
        <mxCell id="_rVcD1gw7nrnVvytm9UZ-81" value="&lt;h2&gt;&lt;i&gt;&lt;u&gt;Execise 2&lt;/u&gt;:&lt;/i&gt;&lt;/h2&gt;" style="text;html=1;align=center;verticalAlign=middle;resizable=0;points=[];autosize=1;strokeColor=none;fillColor=none;" vertex="1" parent="1">
          <mxGeometry x="-10" y="523" width="110" height="60" as="geometry" />
        </mxCell>
        <mxCell id="_rVcD1gw7nrnVvytm9UZ-82" value="ingredient" style="swimlane;fontStyle=0;childLayout=stackLayout;horizontal=1;startSize=30;horizontalStack=0;resizeParent=1;resizeParentMax=0;resizeLast=0;collapsible=1;marginBottom=0;whiteSpace=wrap;html=1;" vertex="1" parent="1">
          <mxGeometry x="200" y="600" width="140" height="120" as="geometry" />
        </mxCell>
        <mxCell id="_rVcD1gw7nrnVvytm9UZ-83" value="name" style="text;strokeColor=none;fillColor=none;align=left;verticalAlign=middle;spacingLeft=4;spacingRight=4;overflow=hidden;points=[[0,0.5],[1,0.5]];portConstraint=eastwest;rotatable=0;whiteSpace=wrap;html=1;" vertex="1" parent="_rVcD1gw7nrnVvytm9UZ-82">
          <mxGeometry y="30" width="140" height="30" as="geometry" />
        </mxCell>
        <mxCell id="_rVcD1gw7nrnVvytm9UZ-84" value="unit of measure" style="text;strokeColor=none;fillColor=none;align=left;verticalAlign=middle;spacingLeft=4;spacingRight=4;overflow=hidden;points=[[0,0.5],[1,0.5]];portConstraint=eastwest;rotatable=0;whiteSpace=wrap;html=1;" vertex="1" parent="_rVcD1gw7nrnVvytm9UZ-82">
          <mxGeometry y="60" width="140" height="30" as="geometry" />
        </mxCell>
        <mxCell id="_rVcD1gw7nrnVvytm9UZ-85" value="quantity in stock" style="text;strokeColor=none;fillColor=none;align=left;verticalAlign=middle;spacingLeft=4;spacingRight=4;overflow=hidden;points=[[0,0.5],[1,0.5]];portConstraint=eastwest;rotatable=0;whiteSpace=wrap;html=1;" vertex="1" parent="_rVcD1gw7nrnVvytm9UZ-82">
          <mxGeometry y="90" width="140" height="30" as="geometry" />
        </mxCell>
        <mxCell id="_rVcD1gw7nrnVvytm9UZ-86" value="dish" style="swimlane;fontStyle=0;childLayout=stackLayout;horizontal=1;startSize=30;horizontalStack=0;resizeParent=1;resizeParentMax=0;resizeLast=0;collapsible=1;marginBottom=0;whiteSpace=wrap;html=1;" vertex="1" parent="1">
          <mxGeometry x="460" y="600" width="140" height="90" as="geometry" />
        </mxCell>
        <mxCell id="_rVcD1gw7nrnVvytm9UZ-87" value="name" style="text;strokeColor=none;fillColor=none;align=left;verticalAlign=middle;spacingLeft=4;spacingRight=4;overflow=hidden;points=[[0,0.5],[1,0.5]];portConstraint=eastwest;rotatable=0;whiteSpace=wrap;html=1;" vertex="1" parent="_rVcD1gw7nrnVvytm9UZ-86">
          <mxGeometry y="30" width="140" height="30" as="geometry" />
        </mxCell>
        <mxCell id="_rVcD1gw7nrnVvytm9UZ-88" value="ID" style="text;strokeColor=none;fillColor=none;align=left;verticalAlign=middle;spacingLeft=4;spacingRight=4;overflow=hidden;points=[[0,0.5],[1,0.5]];portConstraint=eastwest;rotatable=0;whiteSpace=wrap;html=1;" vertex="1" parent="_rVcD1gw7nrnVvytm9UZ-86">
          <mxGeometry y="60" width="140" height="30" as="geometry" />
        </mxCell>
        <mxCell id="_rVcD1gw7nrnVvytm9UZ-91" value="" style="endArrow=diamond;html=1;rounded=0;exitX=1;exitY=0.5;exitDx=0;exitDy=0;entryX=0;entryY=0.5;entryDx=0;entryDy=0;endFill=0;" edge="1" parent="1" source="_rVcD1gw7nrnVvytm9UZ-84" target="_rVcD1gw7nrnVvytm9UZ-88">
          <mxGeometry width="50" height="50" relative="1" as="geometry">
            <mxPoint x="460" y="760" as="sourcePoint" />
            <mxPoint x="510" y="710" as="targetPoint" />
          </mxGeometry>
        </mxCell>
        <mxCell id="_rVcD1gw7nrnVvytm9UZ-93" value="1..*" style="text;html=1;align=center;verticalAlign=middle;resizable=0;points=[];autosize=1;strokeColor=none;fillColor=none;" vertex="1" parent="1">
          <mxGeometry x="340" y="650" width="40" height="30" as="geometry" />
        </mxCell>
        <mxCell id="_rVcD1gw7nrnVvytm9UZ-94" value="1..*" style="text;html=1;align=center;verticalAlign=middle;resizable=0;points=[];autosize=1;strokeColor=none;fillColor=none;" vertex="1" parent="1">
          <mxGeometry x="420" y="650" width="40" height="30" as="geometry" />
        </mxCell>
        <mxCell id="_rVcD1gw7nrnVvytm9UZ-98" value="table" style="swimlane;fontStyle=0;childLayout=stackLayout;horizontal=1;startSize=30;horizontalStack=0;resizeParent=1;resizeParentMax=0;resizeLast=0;collapsible=1;marginBottom=0;whiteSpace=wrap;html=1;" vertex="1" parent="1">
          <mxGeometry x="210" y="820" width="140" height="90" as="geometry" />
        </mxCell>
        <mxCell id="_rVcD1gw7nrnVvytm9UZ-99" value="ID" style="text;strokeColor=none;fillColor=none;align=left;verticalAlign=middle;spacingLeft=4;spacingRight=4;overflow=hidden;points=[[0,0.5],[1,0.5]];portConstraint=eastwest;rotatable=0;whiteSpace=wrap;html=1;" vertex="1" parent="_rVcD1gw7nrnVvytm9UZ-98">
          <mxGeometry y="30" width="140" height="30" as="geometry" />
        </mxCell>
        <mxCell id="_rVcD1gw7nrnVvytm9UZ-100" value="maximum number of people" style="text;strokeColor=none;fillColor=none;align=left;verticalAlign=middle;spacingLeft=4;spacingRight=4;overflow=hidden;points=[[0,0.5],[1,0.5]];portConstraint=eastwest;rotatable=0;whiteSpace=wrap;html=1;" vertex="1" parent="_rVcD1gw7nrnVvytm9UZ-98">
          <mxGeometry y="60" width="140" height="30" as="geometry" />
        </mxCell>
        <mxCell id="_rVcD1gw7nrnVvytm9UZ-102" value="meal" style="swimlane;fontStyle=0;childLayout=stackLayout;horizontal=1;startSize=30;horizontalStack=0;resizeParent=1;resizeParentMax=0;resizeLast=0;collapsible=1;marginBottom=0;whiteSpace=wrap;html=1;" vertex="1" parent="1">
          <mxGeometry x="460" y="800" width="140" height="120" as="geometry" />
        </mxCell>
        <mxCell id="_rVcD1gw7nrnVvytm9UZ-103" value="date" style="text;strokeColor=none;fillColor=none;align=left;verticalAlign=middle;spacingLeft=4;spacingRight=4;overflow=hidden;points=[[0,0.5],[1,0.5]];portConstraint=eastwest;rotatable=0;whiteSpace=wrap;html=1;" vertex="1" parent="_rVcD1gw7nrnVvytm9UZ-102">
          <mxGeometry y="30" width="140" height="30" as="geometry" />
        </mxCell>
        <mxCell id="_rVcD1gw7nrnVvytm9UZ-104" value="start time" style="text;strokeColor=none;fillColor=none;align=left;verticalAlign=middle;spacingLeft=4;spacingRight=4;overflow=hidden;points=[[0,0.5],[1,0.5]];portConstraint=eastwest;rotatable=0;whiteSpace=wrap;html=1;" vertex="1" parent="_rVcD1gw7nrnVvytm9UZ-102">
          <mxGeometry y="60" width="140" height="30" as="geometry" />
        </mxCell>
        <mxCell id="_rVcD1gw7nrnVvytm9UZ-105" value="end time" style="text;strokeColor=none;fillColor=none;align=left;verticalAlign=middle;spacingLeft=4;spacingRight=4;overflow=hidden;points=[[0,0.5],[1,0.5]];portConstraint=eastwest;rotatable=0;whiteSpace=wrap;html=1;" vertex="1" parent="_rVcD1gw7nrnVvytm9UZ-102">
          <mxGeometry y="90" width="140" height="30" as="geometry" />
        </mxCell>
        <mxCell id="_rVcD1gw7nrnVvytm9UZ-106" value="" style="endArrow=none;html=1;rounded=0;entryX=0.392;entryY=1.052;entryDx=0;entryDy=0;entryPerimeter=0;exitX=0.392;exitY=-0.015;exitDx=0;exitDy=0;exitPerimeter=0;" edge="1" parent="1" source="_rVcD1gw7nrnVvytm9UZ-102" target="_rVcD1gw7nrnVvytm9UZ-88">
          <mxGeometry width="50" height="50" relative="1" as="geometry">
            <mxPoint x="380" y="630" as="sourcePoint" />
            <mxPoint x="430" y="580" as="targetPoint" />
          </mxGeometry>
        </mxCell>
        <mxCell id="_rVcD1gw7nrnVvytm9UZ-107" value="consumed in" style="text;html=1;align=center;verticalAlign=middle;resizable=0;points=[];autosize=1;strokeColor=none;fillColor=none;" vertex="1" parent="1">
          <mxGeometry x="525" y="738" width="90" height="30" as="geometry" />
        </mxCell>
        <mxCell id="_rVcD1gw7nrnVvytm9UZ-108" value="1..*" style="text;html=1;align=center;verticalAlign=middle;resizable=0;points=[];autosize=1;strokeColor=none;fillColor=none;" vertex="1" parent="1">
          <mxGeometry x="480" y="768" width="40" height="30" as="geometry" />
        </mxCell>
        <mxCell id="_rVcD1gw7nrnVvytm9UZ-109" value="1..*" style="text;html=1;align=center;verticalAlign=middle;resizable=0;points=[];autosize=1;strokeColor=none;fillColor=none;" vertex="1" parent="1">
          <mxGeometry x="480" y="690" width="40" height="30" as="geometry" />
        </mxCell>
        <mxCell id="_rVcD1gw7nrnVvytm9UZ-110" value="waiter" style="swimlane;fontStyle=0;childLayout=stackLayout;horizontal=1;startSize=30;horizontalStack=0;resizeParent=1;resizeParentMax=0;resizeLast=0;collapsible=1;marginBottom=0;whiteSpace=wrap;html=1;" vertex="1" parent="1">
          <mxGeometry x="680" y="800" width="140" height="150" as="geometry" />
        </mxCell>
        <mxCell id="_rVcD1gw7nrnVvytm9UZ-111" value="ID" style="text;strokeColor=none;fillColor=none;align=left;verticalAlign=middle;spacingLeft=4;spacingRight=4;overflow=hidden;points=[[0,0.5],[1,0.5]];portConstraint=eastwest;rotatable=0;whiteSpace=wrap;html=1;" vertex="1" parent="_rVcD1gw7nrnVvytm9UZ-110">
          <mxGeometry y="30" width="140" height="30" as="geometry" />
        </mxCell>
        <mxCell id="_rVcD1gw7nrnVvytm9UZ-112" value="name" style="text;strokeColor=none;fillColor=none;align=left;verticalAlign=middle;spacingLeft=4;spacingRight=4;overflow=hidden;points=[[0,0.5],[1,0.5]];portConstraint=eastwest;rotatable=0;whiteSpace=wrap;html=1;" vertex="1" parent="_rVcD1gw7nrnVvytm9UZ-110">
          <mxGeometry y="60" width="140" height="30" as="geometry" />
        </mxCell>
        <mxCell id="_rVcD1gw7nrnVvytm9UZ-113" value="adress" style="text;strokeColor=none;fillColor=none;align=left;verticalAlign=middle;spacingLeft=4;spacingRight=4;overflow=hidden;points=[[0,0.5],[1,0.5]];portConstraint=eastwest;rotatable=0;whiteSpace=wrap;html=1;" vertex="1" parent="_rVcD1gw7nrnVvytm9UZ-110">
          <mxGeometry y="90" width="140" height="30" as="geometry" />
        </mxCell>
        <mxCell id="_rVcD1gw7nrnVvytm9UZ-114" value="phone number" style="text;strokeColor=none;fillColor=none;align=left;verticalAlign=middle;spacingLeft=4;spacingRight=4;overflow=hidden;points=[[0,0.5],[1,0.5]];portConstraint=eastwest;rotatable=0;whiteSpace=wrap;html=1;" vertex="1" parent="_rVcD1gw7nrnVvytm9UZ-110">
          <mxGeometry y="120" width="140" height="30" as="geometry" />
        </mxCell>
        <mxCell id="_rVcD1gw7nrnVvytm9UZ-117" value="" style="endArrow=none;html=1;rounded=0;endFill=0;exitX=0;exitY=0.5;exitDx=0;exitDy=0;entryX=1;entryY=0.5;entryDx=0;entryDy=0;" edge="1" parent="1" source="_rVcD1gw7nrnVvytm9UZ-112" target="_rVcD1gw7nrnVvytm9UZ-104">
          <mxGeometry width="50" height="50" relative="1" as="geometry">
            <mxPoint x="720" y="864.17" as="sourcePoint" />
            <mxPoint x="636" y="864.17" as="targetPoint" />
            <Array as="points" />
          </mxGeometry>
        </mxCell>
        <mxCell id="_rVcD1gw7nrnVvytm9UZ-118" value="customer" style="swimlane;fontStyle=0;childLayout=stackLayout;horizontal=1;startSize=30;horizontalStack=0;resizeParent=1;resizeParentMax=0;resizeLast=0;collapsible=1;marginBottom=0;whiteSpace=wrap;html=1;" vertex="1" parent="1">
          <mxGeometry x="460" y="980" width="140" height="120" as="geometry" />
        </mxCell>
        <mxCell id="_rVcD1gw7nrnVvytm9UZ-119" value="tax identification number" style="text;strokeColor=none;fillColor=none;align=left;verticalAlign=middle;spacingLeft=4;spacingRight=4;overflow=hidden;points=[[0,0.5],[1,0.5]];portConstraint=eastwest;rotatable=0;whiteSpace=wrap;html=1;" vertex="1" parent="_rVcD1gw7nrnVvytm9UZ-118">
          <mxGeometry y="30" width="140" height="30" as="geometry" />
        </mxCell>
        <mxCell id="_rVcD1gw7nrnVvytm9UZ-120" value="name" style="text;strokeColor=none;fillColor=none;align=left;verticalAlign=middle;spacingLeft=4;spacingRight=4;overflow=hidden;points=[[0,0.5],[1,0.5]];portConstraint=eastwest;rotatable=0;whiteSpace=wrap;html=1;" vertex="1" parent="_rVcD1gw7nrnVvytm9UZ-118">
          <mxGeometry y="60" width="140" height="30" as="geometry" />
        </mxCell>
        <mxCell id="_rVcD1gw7nrnVvytm9UZ-121" value="adress" style="text;strokeColor=none;fillColor=none;align=left;verticalAlign=middle;spacingLeft=4;spacingRight=4;overflow=hidden;points=[[0,0.5],[1,0.5]];portConstraint=eastwest;rotatable=0;whiteSpace=wrap;html=1;" vertex="1" parent="_rVcD1gw7nrnVvytm9UZ-118">
          <mxGeometry y="90" width="140" height="30" as="geometry" />
        </mxCell>
        <mxCell id="_rVcD1gw7nrnVvytm9UZ-122" value="" style="endArrow=none;html=1;rounded=0;exitX=0.495;exitY=0.867;exitDx=0;exitDy=0;exitPerimeter=0;entryX=0.5;entryY=0;entryDx=0;entryDy=0;" edge="1" parent="1" source="_rVcD1gw7nrnVvytm9UZ-105" target="_rVcD1gw7nrnVvytm9UZ-118">
          <mxGeometry width="50" height="50" relative="1" as="geometry">
            <mxPoint x="538" y="918" as="sourcePoint" />
            <mxPoint x="540" y="970" as="targetPoint" />
          </mxGeometry>
        </mxCell>
        <mxCell id="_rVcD1gw7nrnVvytm9UZ-123" value="consums" style="text;html=1;align=center;verticalAlign=middle;resizable=0;points=[];autosize=1;strokeColor=none;fillColor=none;" vertex="1" parent="1">
          <mxGeometry x="554" y="938" width="70" height="30" as="geometry" />
        </mxCell>
        <mxCell id="_rVcD1gw7nrnVvytm9UZ-125" value="&lt;h2&gt;&lt;u&gt;&lt;i&gt;Exercise 3:&amp;nbsp;&lt;/i&gt;&lt;/u&gt;&lt;/h2&gt;" style="text;html=1;align=center;verticalAlign=middle;whiteSpace=wrap;rounded=0;" vertex="1" parent="1">
          <mxGeometry x="890" y="30" width="120" height="30" as="geometry" />
        </mxCell>
        <mxCell id="_rVcD1gw7nrnVvytm9UZ-126" value="" style="endArrow=none;html=1;rounded=0;exitX=1;exitY=0.5;exitDx=0;exitDy=0;entryX=0.003;entryY=1.219;entryDx=0;entryDy=0;entryPerimeter=0;" edge="1" parent="1" source="_rVcD1gw7nrnVvytm9UZ-99" target="_rVcD1gw7nrnVvytm9UZ-103">
          <mxGeometry width="50" height="50" relative="1" as="geometry">
            <mxPoint x="380" y="810" as="sourcePoint" />
            <mxPoint x="430" y="760" as="targetPoint" />
          </mxGeometry>
        </mxCell>
        <mxCell id="_rVcD1gw7nrnVvytm9UZ-127" value="served in&amp;nbsp;" style="text;html=1;align=center;verticalAlign=middle;resizable=0;points=[];autosize=1;strokeColor=none;fillColor=none;" vertex="1" parent="1">
          <mxGeometry x="365" y="838" width="80" height="30" as="geometry" />
        </mxCell>
        <mxCell id="_rVcD1gw7nrnVvytm9UZ-128" value="1" style="text;html=1;align=center;verticalAlign=middle;resizable=0;points=[];autosize=1;strokeColor=none;fillColor=none;" vertex="1" parent="1">
          <mxGeometry x="650" y="850" width="30" height="30" as="geometry" />
        </mxCell>
        <mxCell id="_rVcD1gw7nrnVvytm9UZ-130" value="1" style="text;html=1;align=center;verticalAlign=middle;resizable=0;points=[];autosize=1;strokeColor=none;fillColor=none;" vertex="1" parent="1">
          <mxGeometry x="345" y="845" width="30" height="30" as="geometry" />
        </mxCell>
        <mxCell id="_rVcD1gw7nrnVvytm9UZ-134" value="college" style="swimlane;fontStyle=0;childLayout=stackLayout;horizontal=1;startSize=30;horizontalStack=0;resizeParent=1;resizeParentMax=0;resizeLast=0;collapsible=1;marginBottom=0;whiteSpace=wrap;html=1;" vertex="1" parent="1">
          <mxGeometry x="920" y="78" width="140" height="90" as="geometry" />
        </mxCell>
        <mxCell id="_rVcD1gw7nrnVvytm9UZ-135" value="name" style="text;strokeColor=none;fillColor=none;align=left;verticalAlign=middle;spacingLeft=4;spacingRight=4;overflow=hidden;points=[[0,0.5],[1,0.5]];portConstraint=eastwest;rotatable=0;whiteSpace=wrap;html=1;" vertex="1" parent="_rVcD1gw7nrnVvytm9UZ-134">
          <mxGeometry y="30" width="140" height="30" as="geometry" />
        </mxCell>
        <mxCell id="_rVcD1gw7nrnVvytm9UZ-136" value="website" style="text;strokeColor=none;fillColor=none;align=left;verticalAlign=middle;spacingLeft=4;spacingRight=4;overflow=hidden;points=[[0,0.5],[1,0.5]];portConstraint=eastwest;rotatable=0;whiteSpace=wrap;html=1;" vertex="1" parent="_rVcD1gw7nrnVvytm9UZ-134">
          <mxGeometry y="60" width="140" height="30" as="geometry" />
        </mxCell>
        <mxCell id="_rVcD1gw7nrnVvytm9UZ-139" value="departement" style="swimlane;fontStyle=0;childLayout=stackLayout;horizontal=1;startSize=30;horizontalStack=0;resizeParent=1;resizeParentMax=0;resizeLast=0;collapsible=1;marginBottom=0;whiteSpace=wrap;html=1;" vertex="1" parent="1">
          <mxGeometry x="1140" y="99.99999999999977" width="140" height="60" as="geometry" />
        </mxCell>
        <mxCell id="_rVcD1gw7nrnVvytm9UZ-144" value="" style="endArrow=diamondThin;html=1;rounded=0;entryX=1.004;entryY=0.693;entryDx=0;entryDy=0;entryPerimeter=0;endFill=1;" edge="1" parent="1" target="_rVcD1gw7nrnVvytm9UZ-135">
          <mxGeometry width="50" height="50" relative="1" as="geometry">
            <mxPoint x="1140" y="129" as="sourcePoint" />
            <mxPoint x="1180" y="150" as="targetPoint" />
          </mxGeometry>
        </mxCell>
        <mxCell id="_rVcD1gw7nrnVvytm9UZ-145" value="teacher" style="swimlane;fontStyle=0;childLayout=stackLayout;horizontal=1;startSize=30;horizontalStack=0;resizeParent=1;resizeParentMax=0;resizeLast=0;collapsible=1;marginBottom=0;whiteSpace=wrap;html=1;" vertex="1" parent="1">
          <mxGeometry x="1360" y="60" width="140" height="180" as="geometry" />
        </mxCell>
        <mxCell id="_rVcD1gw7nrnVvytm9UZ-146" value="first name" style="text;strokeColor=none;fillColor=none;align=left;verticalAlign=middle;spacingLeft=4;spacingRight=4;overflow=hidden;points=[[0,0.5],[1,0.5]];portConstraint=eastwest;rotatable=0;whiteSpace=wrap;html=1;" vertex="1" parent="_rVcD1gw7nrnVvytm9UZ-145">
          <mxGeometry y="30" width="140" height="30" as="geometry" />
        </mxCell>
        <mxCell id="_rVcD1gw7nrnVvytm9UZ-147" value="last name" style="text;strokeColor=none;fillColor=none;align=left;verticalAlign=middle;spacingLeft=4;spacingRight=4;overflow=hidden;points=[[0,0.5],[1,0.5]];portConstraint=eastwest;rotatable=0;whiteSpace=wrap;html=1;" vertex="1" parent="_rVcD1gw7nrnVvytm9UZ-145">
          <mxGeometry y="60" width="140" height="30" as="geometry" />
        </mxCell>
        <mxCell id="_rVcD1gw7nrnVvytm9UZ-148" value="phone number" style="text;strokeColor=none;fillColor=none;align=left;verticalAlign=middle;spacingLeft=4;spacingRight=4;overflow=hidden;points=[[0,0.5],[1,0.5]];portConstraint=eastwest;rotatable=0;whiteSpace=wrap;html=1;" vertex="1" parent="_rVcD1gw7nrnVvytm9UZ-145">
          <mxGeometry y="90" width="140" height="30" as="geometry" />
        </mxCell>
        <mxCell id="_rVcD1gw7nrnVvytm9UZ-149" value="email" style="text;strokeColor=none;fillColor=none;align=left;verticalAlign=middle;spacingLeft=4;spacingRight=4;overflow=hidden;points=[[0,0.5],[1,0.5]];portConstraint=eastwest;rotatable=0;whiteSpace=wrap;html=1;" vertex="1" parent="_rVcD1gw7nrnVvytm9UZ-145">
          <mxGeometry y="120" width="140" height="30" as="geometry" />
        </mxCell>
        <mxCell id="_rVcD1gw7nrnVvytm9UZ-150" value="start date" style="text;strokeColor=none;fillColor=none;align=left;verticalAlign=middle;spacingLeft=4;spacingRight=4;overflow=hidden;points=[[0,0.5],[1,0.5]];portConstraint=eastwest;rotatable=0;whiteSpace=wrap;html=1;" vertex="1" parent="_rVcD1gw7nrnVvytm9UZ-145">
          <mxGeometry y="150" width="140" height="30" as="geometry" />
        </mxCell>
        <mxCell id="_rVcD1gw7nrnVvytm9UZ-151" value="" style="endArrow=diamond;html=1;rounded=0;exitX=0.012;exitY=0.737;exitDx=0;exitDy=0;endFill=0;exitPerimeter=0;" edge="1" parent="1" source="_rVcD1gw7nrnVvytm9UZ-147">
          <mxGeometry width="50" height="50" relative="1" as="geometry">
            <mxPoint x="1310" y="100" as="sourcePoint" />
            <mxPoint x="1280" y="140" as="targetPoint" />
          </mxGeometry>
        </mxCell>
        <mxCell id="_rVcD1gw7nrnVvytm9UZ-153" value="head of&amp;nbsp;&lt;div&gt;departement&lt;/div&gt;" style="edgeLabel;html=1;align=center;verticalAlign=middle;resizable=0;points=[];" vertex="1" connectable="0" parent="_rVcD1gw7nrnVvytm9UZ-151">
          <mxGeometry x="-0.0091" y="4" relative="1" as="geometry">
            <mxPoint y="15" as="offset" />
          </mxGeometry>
        </mxCell>
        <mxCell id="_rVcD1gw7nrnVvytm9UZ-154" value="&lt;font style=&quot;font-size: 9px;&quot;&gt;1&lt;/font&gt;" style="text;html=1;align=center;verticalAlign=middle;resizable=0;points=[];autosize=1;strokeColor=none;fillColor=none;" vertex="1" parent="1">
          <mxGeometry x="1335" y="118" width="30" height="30" as="geometry" />
        </mxCell>
        <mxCell id="_rVcD1gw7nrnVvytm9UZ-155" value="" style="endArrow=none;html=1;rounded=0;entryX=0;entryY=0.737;entryDx=0;entryDy=0;entryPerimeter=0;" edge="1" parent="1" target="_rVcD1gw7nrnVvytm9UZ-146">
          <mxGeometry width="50" height="50" relative="1" as="geometry">
            <mxPoint x="1281" y="110" as="sourcePoint" />
            <mxPoint x="1420" y="140" as="targetPoint" />
          </mxGeometry>
        </mxCell>
        <mxCell id="_rVcD1gw7nrnVvytm9UZ-156" value="teach" style="text;html=1;align=center;verticalAlign=middle;resizable=0;points=[];autosize=1;strokeColor=none;fillColor=none;" vertex="1" parent="1">
          <mxGeometry x="1300" y="88" width="50" height="30" as="geometry" />
        </mxCell>
        <mxCell id="_rVcD1gw7nrnVvytm9UZ-157" value="subject" style="swimlane;fontStyle=0;childLayout=stackLayout;horizontal=1;startSize=30;horizontalStack=0;resizeParent=1;resizeParentMax=0;resizeLast=0;collapsible=1;marginBottom=0;whiteSpace=wrap;html=1;" vertex="1" parent="1">
          <mxGeometry x="1360" y="340" width="140" height="60" as="geometry" />
        </mxCell>
        <mxCell id="_rVcD1gw7nrnVvytm9UZ-161" value="" style="endArrow=none;html=1;rounded=0;entryX=0.429;entryY=1.107;entryDx=0;entryDy=0;entryPerimeter=0;exitX=0.433;exitY=-0.039;exitDx=0;exitDy=0;exitPerimeter=0;" edge="1" parent="1" source="_rVcD1gw7nrnVvytm9UZ-157" target="_rVcD1gw7nrnVvytm9UZ-150">
          <mxGeometry width="50" height="50" relative="1" as="geometry">
            <mxPoint x="1160" y="290" as="sourcePoint" />
            <mxPoint x="1210" y="240" as="targetPoint" />
          </mxGeometry>
        </mxCell>
        <mxCell id="_rVcD1gw7nrnVvytm9UZ-162" value="teach" style="text;html=1;align=center;verticalAlign=middle;resizable=0;points=[];autosize=1;strokeColor=none;fillColor=none;" vertex="1" parent="1">
          <mxGeometry x="1365" y="280" width="50" height="30" as="geometry" />
        </mxCell>
        <mxCell id="_rVcD1gw7nrnVvytm9UZ-163" value="1..*" style="text;html=1;align=center;verticalAlign=middle;resizable=0;points=[];autosize=1;strokeColor=none;fillColor=none;" vertex="1" parent="1">
          <mxGeometry x="1420" y="240" width="40" height="30" as="geometry" />
        </mxCell>
        <mxCell id="_rVcD1gw7nrnVvytm9UZ-166" value="1" style="text;html=1;align=center;verticalAlign=middle;resizable=0;points=[];autosize=1;strokeColor=none;fillColor=none;" vertex="1" parent="1">
          <mxGeometry x="1420" y="320" width="30" height="30" as="geometry" />
        </mxCell>
        <mxCell id="_rVcD1gw7nrnVvytm9UZ-167" value="classroom" style="swimlane;fontStyle=0;childLayout=stackLayout;horizontal=1;startSize=30;horizontalStack=0;resizeParent=1;resizeParentMax=0;resizeLast=0;collapsible=1;marginBottom=0;whiteSpace=wrap;html=1;" vertex="1" parent="1">
          <mxGeometry x="1120" y="350" width="140" height="60" as="geometry" />
        </mxCell>
        <mxCell id="_rVcD1gw7nrnVvytm9UZ-168" value="capacity" style="text;strokeColor=none;fillColor=none;align=left;verticalAlign=middle;spacingLeft=4;spacingRight=4;overflow=hidden;points=[[0,0.5],[1,0.5]];portConstraint=eastwest;rotatable=0;whiteSpace=wrap;html=1;" vertex="1" parent="_rVcD1gw7nrnVvytm9UZ-167">
          <mxGeometry y="30" width="140" height="30" as="geometry" />
        </mxCell>
        <mxCell id="_rVcD1gw7nrnVvytm9UZ-171" value="" style="endArrow=none;html=1;rounded=0;exitX=1.004;exitY=-0.115;exitDx=0;exitDy=0;exitPerimeter=0;" edge="1" parent="1" source="_rVcD1gw7nrnVvytm9UZ-168">
          <mxGeometry width="50" height="50" relative="1" as="geometry">
            <mxPoint x="1160" y="370" as="sourcePoint" />
            <mxPoint x="1360" y="380" as="targetPoint" />
          </mxGeometry>
        </mxCell>
        <mxCell id="_rVcD1gw7nrnVvytm9UZ-176" value="student" style="swimlane;fontStyle=0;childLayout=stackLayout;horizontal=1;startSize=30;horizontalStack=0;resizeParent=1;resizeParentMax=0;resizeLast=0;collapsible=1;marginBottom=0;whiteSpace=wrap;html=1;" vertex="1" parent="1">
          <mxGeometry x="1580" y="280" width="140" height="180" as="geometry" />
        </mxCell>
        <mxCell id="_rVcD1gw7nrnVvytm9UZ-177" value="first name" style="text;strokeColor=none;fillColor=none;align=left;verticalAlign=middle;spacingLeft=4;spacingRight=4;overflow=hidden;points=[[0,0.5],[1,0.5]];portConstraint=eastwest;rotatable=0;whiteSpace=wrap;html=1;" vertex="1" parent="_rVcD1gw7nrnVvytm9UZ-176">
          <mxGeometry y="30" width="140" height="30" as="geometry" />
        </mxCell>
        <mxCell id="_rVcD1gw7nrnVvytm9UZ-178" value="last name" style="text;strokeColor=none;fillColor=none;align=left;verticalAlign=middle;spacingLeft=4;spacingRight=4;overflow=hidden;points=[[0,0.5],[1,0.5]];portConstraint=eastwest;rotatable=0;whiteSpace=wrap;html=1;" vertex="1" parent="_rVcD1gw7nrnVvytm9UZ-176">
          <mxGeometry y="60" width="140" height="30" as="geometry" />
        </mxCell>
        <mxCell id="_rVcD1gw7nrnVvytm9UZ-179" value="phone number&amp;nbsp;" style="text;strokeColor=none;fillColor=none;align=left;verticalAlign=middle;spacingLeft=4;spacingRight=4;overflow=hidden;points=[[0,0.5],[1,0.5]];portConstraint=eastwest;rotatable=0;whiteSpace=wrap;html=1;" vertex="1" parent="_rVcD1gw7nrnVvytm9UZ-176">
          <mxGeometry y="90" width="140" height="30" as="geometry" />
        </mxCell>
        <mxCell id="_rVcD1gw7nrnVvytm9UZ-180" value="email" style="text;strokeColor=none;fillColor=none;align=left;verticalAlign=middle;spacingLeft=4;spacingRight=4;overflow=hidden;points=[[0,0.5],[1,0.5]];portConstraint=eastwest;rotatable=0;whiteSpace=wrap;html=1;" vertex="1" parent="_rVcD1gw7nrnVvytm9UZ-176">
          <mxGeometry y="120" width="140" height="30" as="geometry" />
        </mxCell>
        <mxCell id="_rVcD1gw7nrnVvytm9UZ-181" value="year of entry" style="text;strokeColor=none;fillColor=none;align=left;verticalAlign=middle;spacingLeft=4;spacingRight=4;overflow=hidden;points=[[0,0.5],[1,0.5]];portConstraint=eastwest;rotatable=0;whiteSpace=wrap;html=1;" vertex="1" parent="_rVcD1gw7nrnVvytm9UZ-176">
          <mxGeometry y="150" width="140" height="30" as="geometry" />
        </mxCell>
        <mxCell id="_rVcD1gw7nrnVvytm9UZ-182" value="" style="endArrow=none;html=1;rounded=0;entryX=0.007;entryY=0.033;entryDx=0;entryDy=0;entryPerimeter=0;exitX=1;exitY=0.5;exitDx=0;exitDy=0;" edge="1" parent="1" source="_rVcD1gw7nrnVvytm9UZ-157" target="_rVcD1gw7nrnVvytm9UZ-179">
          <mxGeometry width="50" height="50" relative="1" as="geometry">
            <mxPoint x="1390" y="320" as="sourcePoint" />
            <mxPoint x="1440" y="270" as="targetPoint" />
          </mxGeometry>
        </mxCell>
        <mxCell id="_rVcD1gw7nrnVvytm9UZ-183" value="take" style="text;html=1;align=center;verticalAlign=middle;resizable=0;points=[];autosize=1;strokeColor=none;fillColor=none;" vertex="1" parent="1">
          <mxGeometry x="1510" y="350" width="50" height="30" as="geometry" />
        </mxCell>
        <mxCell id="_rVcD1gw7nrnVvytm9UZ-184" value="1..*" style="text;html=1;align=center;verticalAlign=middle;resizable=0;points=[];autosize=1;strokeColor=none;fillColor=none;" vertex="1" parent="1">
          <mxGeometry x="1490" y="365" width="40" height="30" as="geometry" />
        </mxCell>
        <mxCell id="_rVcD1gw7nrnVvytm9UZ-185" value="" style="endArrow=none;dashed=1;html=1;dashPattern=1 3;strokeWidth=2;rounded=0;" edge="1" parent="1">
          <mxGeometry width="50" height="50" relative="1" as="geometry">
            <mxPoint x="1540" y="470" as="sourcePoint" />
            <mxPoint x="1540" y="373" as="targetPoint" />
          </mxGeometry>
        </mxCell>
        <mxCell id="_rVcD1gw7nrnVvytm9UZ-190" value="grade" style="swimlane;fontStyle=0;childLayout=stackLayout;horizontal=1;startSize=30;horizontalStack=0;resizeParent=1;resizeParentMax=0;resizeLast=0;collapsible=1;marginBottom=0;whiteSpace=wrap;html=1;" vertex="1" parent="1">
          <mxGeometry x="1480" y="470" width="140" height="60" as="geometry" />
        </mxCell>
        <mxCell id="_rVcD1gw7nrnVvytm9UZ-194" value="personal record" style="swimlane;fontStyle=0;childLayout=stackLayout;horizontal=1;startSize=30;horizontalStack=0;resizeParent=1;resizeParentMax=0;resizeLast=0;collapsible=1;marginBottom=0;whiteSpace=wrap;html=1;" vertex="1" parent="1">
          <mxGeometry x="1580" y="60" width="140" height="150" as="geometry" />
        </mxCell>
        <mxCell id="_rVcD1gw7nrnVvytm9UZ-195" value="print first name&amp;nbsp;" style="text;strokeColor=none;fillColor=none;align=left;verticalAlign=middle;spacingLeft=4;spacingRight=4;overflow=hidden;points=[[0,0.5],[1,0.5]];portConstraint=eastwest;rotatable=0;whiteSpace=wrap;html=1;" vertex="1" parent="_rVcD1gw7nrnVvytm9UZ-194">
          <mxGeometry y="30" width="140" height="30" as="geometry" />
        </mxCell>
        <mxCell id="_rVcD1gw7nrnVvytm9UZ-196" value="print flast name&amp;nbsp;" style="text;strokeColor=none;fillColor=none;align=left;verticalAlign=middle;spacingLeft=4;spacingRight=4;overflow=hidden;points=[[0,0.5],[1,0.5]];portConstraint=eastwest;rotatable=0;whiteSpace=wrap;html=1;" vertex="1" parent="_rVcD1gw7nrnVvytm9UZ-194">
          <mxGeometry y="60" width="140" height="30" as="geometry" />
        </mxCell>
        <mxCell id="_rVcD1gw7nrnVvytm9UZ-197" value="print phone number" style="text;strokeColor=none;fillColor=none;align=left;verticalAlign=middle;spacingLeft=4;spacingRight=4;overflow=hidden;points=[[0,0.5],[1,0.5]];portConstraint=eastwest;rotatable=0;whiteSpace=wrap;html=1;" vertex="1" parent="_rVcD1gw7nrnVvytm9UZ-194">
          <mxGeometry y="90" width="140" height="30" as="geometry" />
        </mxCell>
        <mxCell id="_rVcD1gw7nrnVvytm9UZ-201" value="print email" style="text;strokeColor=none;fillColor=none;align=left;verticalAlign=middle;spacingLeft=4;spacingRight=4;overflow=hidden;points=[[0,0.5],[1,0.5]];portConstraint=eastwest;rotatable=0;whiteSpace=wrap;html=1;" vertex="1" parent="_rVcD1gw7nrnVvytm9UZ-194">
          <mxGeometry y="120" width="140" height="30" as="geometry" />
        </mxCell>
        <mxCell id="_rVcD1gw7nrnVvytm9UZ-198" value="" style="endArrow=none;html=1;rounded=0;entryX=0;entryY=0.5;entryDx=0;entryDy=0;exitX=1;exitY=0.5;exitDx=0;exitDy=0;" edge="1" parent="1" source="_rVcD1gw7nrnVvytm9UZ-147" target="_rVcD1gw7nrnVvytm9UZ-196">
          <mxGeometry width="50" height="50" relative="1" as="geometry">
            <mxPoint x="1290" y="300" as="sourcePoint" />
            <mxPoint x="1340" y="250" as="targetPoint" />
          </mxGeometry>
        </mxCell>
        <mxCell id="_rVcD1gw7nrnVvytm9UZ-199" value="" style="endArrow=none;html=1;rounded=0;entryX=0.455;entryY=-0.013;entryDx=0;entryDy=0;entryPerimeter=0;" edge="1" parent="1" target="_rVcD1gw7nrnVvytm9UZ-176">
          <mxGeometry width="50" height="50" relative="1" as="geometry">
            <mxPoint x="1644" y="210" as="sourcePoint" />
            <mxPoint x="1590" y="145" as="targetPoint" />
          </mxGeometry>
        </mxCell>
        <mxCell id="_rVcD1gw7nrnVvytm9UZ-202" value="&lt;h2&gt;&lt;u&gt;&lt;i&gt;exercise 4:&lt;/i&gt;&lt;/u&gt;&lt;/h2&gt;" style="text;html=1;align=center;verticalAlign=middle;whiteSpace=wrap;rounded=0;" vertex="1" parent="1">
          <mxGeometry x="890" y="650" width="170" height="50" as="geometry" />
        </mxCell>
        <mxCell id="_rVcD1gw7nrnVvytm9UZ-203" value="Airlines" style="swimlane;fontStyle=0;childLayout=stackLayout;horizontal=1;startSize=30;horizontalStack=0;resizeParent=1;resizeParentMax=0;resizeLast=0;collapsible=1;marginBottom=0;whiteSpace=wrap;html=1;" vertex="1" parent="1">
          <mxGeometry x="990" y="743" width="140" height="60" as="geometry" />
        </mxCell>
        <mxCell id="_rVcD1gw7nrnVvytm9UZ-207" value="flight" style="swimlane;fontStyle=0;childLayout=stackLayout;horizontal=1;startSize=30;horizontalStack=0;resizeParent=1;resizeParentMax=0;resizeLast=0;collapsible=1;marginBottom=0;whiteSpace=wrap;html=1;" vertex="1" parent="1">
          <mxGeometry x="1255" y="718" width="140" height="110" as="geometry" />
        </mxCell>
        <mxCell id="_rVcD1gw7nrnVvytm9UZ-208" value="departure airport, date and time" style="text;strokeColor=none;fillColor=none;align=left;verticalAlign=middle;spacingLeft=4;spacingRight=4;overflow=hidden;points=[[0,0.5],[1,0.5]];portConstraint=eastwest;rotatable=0;whiteSpace=wrap;html=1;" vertex="1" parent="_rVcD1gw7nrnVvytm9UZ-207">
          <mxGeometry y="30" width="140" height="40" as="geometry" />
        </mxCell>
        <mxCell id="_rVcD1gw7nrnVvytm9UZ-210" value="arrival airport, date and time" style="text;strokeColor=none;fillColor=none;align=left;verticalAlign=middle;spacingLeft=4;spacingRight=4;overflow=hidden;points=[[0,0.5],[1,0.5]];portConstraint=eastwest;rotatable=0;whiteSpace=wrap;html=1;" vertex="1" parent="_rVcD1gw7nrnVvytm9UZ-207">
          <mxGeometry y="70" width="140" height="40" as="geometry" />
        </mxCell>
        <mxCell id="_rVcD1gw7nrnVvytm9UZ-211" value="stopover" style="swimlane;fontStyle=0;childLayout=stackLayout;horizontal=1;startSize=30;horizontalStack=0;resizeParent=1;resizeParentMax=0;resizeLast=0;collapsible=1;marginBottom=0;whiteSpace=wrap;html=1;" vertex="1" parent="1">
          <mxGeometry x="990" y="890" width="140" height="90" as="geometry" />
        </mxCell>
        <mxCell id="_rVcD1gw7nrnVvytm9UZ-213" value=" departure time" style="text;strokeColor=none;fillColor=none;align=left;verticalAlign=middle;spacingLeft=4;spacingRight=4;overflow=hidden;points=[[0,0.5],[1,0.5]];portConstraint=eastwest;rotatable=0;whiteSpace=wrap;html=1;" vertex="1" parent="_rVcD1gw7nrnVvytm9UZ-211">
          <mxGeometry y="30" width="140" height="30" as="geometry" />
        </mxCell>
        <mxCell id="_rVcD1gw7nrnVvytm9UZ-214" value="arrival time." style="text;strokeColor=none;fillColor=none;align=left;verticalAlign=middle;spacingLeft=4;spacingRight=4;overflow=hidden;points=[[0,0.5],[1,0.5]];portConstraint=eastwest;rotatable=0;whiteSpace=wrap;html=1;" vertex="1" parent="_rVcD1gw7nrnVvytm9UZ-211">
          <mxGeometry y="60" width="140" height="30" as="geometry" />
        </mxCell>
        <mxCell id="_rVcD1gw7nrnVvytm9UZ-218" value="client" style="swimlane;fontStyle=0;childLayout=stackLayout;horizontal=1;startSize=30;horizontalStack=0;resizeParent=1;resizeParentMax=0;resizeLast=0;collapsible=1;marginBottom=0;whiteSpace=wrap;html=1;" vertex="1" parent="1">
          <mxGeometry x="1480" y="720" width="140" height="60" as="geometry" />
        </mxCell>
        <mxCell id="_rVcD1gw7nrnVvytm9UZ-222" value="reservation" style="swimlane;fontStyle=0;childLayout=stackLayout;horizontal=1;startSize=30;horizontalStack=0;resizeParent=1;resizeParentMax=0;resizeLast=0;collapsible=1;marginBottom=0;whiteSpace=wrap;html=1;" vertex="1" parent="1">
          <mxGeometry x="1490" y="893" width="140" height="90" as="geometry" />
        </mxCell>
        <mxCell id="_rVcD1gw7nrnVvytm9UZ-223" value="can be confirmed&amp;nbsp;" style="text;strokeColor=none;fillColor=none;align=left;verticalAlign=middle;spacingLeft=4;spacingRight=4;overflow=hidden;points=[[0,0.5],[1,0.5]];portConstraint=eastwest;rotatable=0;whiteSpace=wrap;html=1;" vertex="1" parent="_rVcD1gw7nrnVvytm9UZ-222">
          <mxGeometry y="30" width="140" height="30" as="geometry" />
        </mxCell>
        <mxCell id="_rVcD1gw7nrnVvytm9UZ-224" value="can be canceled&amp;nbsp;" style="text;strokeColor=none;fillColor=none;align=left;verticalAlign=middle;spacingLeft=4;spacingRight=4;overflow=hidden;points=[[0,0.5],[1,0.5]];portConstraint=eastwest;rotatable=0;whiteSpace=wrap;html=1;" vertex="1" parent="_rVcD1gw7nrnVvytm9UZ-222">
          <mxGeometry y="60" width="140" height="30" as="geometry" />
        </mxCell>
        <mxCell id="_rVcD1gw7nrnVvytm9UZ-226" value="airport" style="swimlane;fontStyle=0;childLayout=stackLayout;horizontal=1;startSize=30;horizontalStack=0;resizeParent=1;resizeParentMax=0;resizeLast=0;collapsible=1;marginBottom=0;whiteSpace=wrap;html=1;" vertex="1" parent="1">
          <mxGeometry x="1255" y="910" width="140" height="60" as="geometry" />
        </mxCell>
        <mxCell id="_rVcD1gw7nrnVvytm9UZ-232" value="" style="endArrow=none;html=1;rounded=0;entryX=0;entryY=0.5;entryDx=0;entryDy=0;" edge="1" parent="1" target="_rVcD1gw7nrnVvytm9UZ-208">
          <mxGeometry width="50" height="50" relative="1" as="geometry">
            <mxPoint x="1130" y="768" as="sourcePoint" />
            <mxPoint x="1120" y="890" as="targetPoint" />
          </mxGeometry>
        </mxCell>
        <mxCell id="_rVcD1gw7nrnVvytm9UZ-233" value="" style="endArrow=none;html=1;rounded=0;exitX=0.999;exitY=0.547;exitDx=0;exitDy=0;exitPerimeter=0;" edge="1" parent="1" source="_rVcD1gw7nrnVvytm9UZ-208">
          <mxGeometry width="50" height="50" relative="1" as="geometry">
            <mxPoint x="1070" y="940" as="sourcePoint" />
            <mxPoint x="1480" y="770" as="targetPoint" />
          </mxGeometry>
        </mxCell>
        <mxCell id="_rVcD1gw7nrnVvytm9UZ-238" value="" style="endArrow=none;html=1;rounded=0;exitX=1.005;exitY=0.679;exitDx=0;exitDy=0;exitPerimeter=0;entryX=0;entryY=0.5;entryDx=0;entryDy=0;endFill=0;shape=wire;dashed=1;" edge="1" parent="1" source="_rVcD1gw7nrnVvytm9UZ-213" target="_rVcD1gw7nrnVvytm9UZ-226">
          <mxGeometry width="50" height="50" relative="1" as="geometry">
            <mxPoint x="1160" y="920" as="sourcePoint" />
            <mxPoint x="1250" y="940" as="targetPoint" />
          </mxGeometry>
        </mxCell>
        <mxCell id="_rVcD1gw7nrnVvytm9UZ-243" value="city" style="swimlane;fontStyle=0;childLayout=stackLayout;horizontal=1;startSize=30;horizontalStack=0;resizeParent=1;resizeParentMax=0;resizeLast=0;collapsible=1;marginBottom=0;whiteSpace=wrap;html=1;" vertex="1" parent="1">
          <mxGeometry x="1255" y="1040" width="140" height="60" as="geometry" />
        </mxCell>
        <mxCell id="_rVcD1gw7nrnVvytm9UZ-247" value="" style="endArrow=none;html=1;rounded=0;entryX=0.5;entryY=0;entryDx=0;entryDy=0;exitX=0.5;exitY=1;exitDx=0;exitDy=0;" edge="1" parent="1" source="_rVcD1gw7nrnVvytm9UZ-226" target="_rVcD1gw7nrnVvytm9UZ-243">
          <mxGeometry width="50" height="50" relative="1" as="geometry">
            <mxPoint x="1340" y="940" as="sourcePoint" />
            <mxPoint x="1390" y="890" as="targetPoint" />
          </mxGeometry>
        </mxCell>
        <mxCell id="_rVcD1gw7nrnVvytm9UZ-248" value="" style="endArrow=none;html=1;rounded=0;entryX=1.013;entryY=0.723;entryDx=0;entryDy=0;entryPerimeter=0;endFill=0;" edge="1" parent="1" target="_rVcD1gw7nrnVvytm9UZ-210">
          <mxGeometry width="50" height="50" relative="1" as="geometry">
            <mxPoint x="1510" y="890" as="sourcePoint" />
            <mxPoint x="1390" y="840" as="targetPoint" />
          </mxGeometry>
        </mxCell>
        <mxCell id="_rVcD1gw7nrnVvytm9UZ-249" value="" style="endArrow=none;html=1;rounded=0;entryX=0.5;entryY=1;entryDx=0;entryDy=0;" edge="1" parent="1" target="_rVcD1gw7nrnVvytm9UZ-218">
          <mxGeometry width="50" height="50" relative="1" as="geometry">
            <mxPoint x="1550" y="890" as="sourcePoint" />
            <mxPoint x="1390" y="840" as="targetPoint" />
          </mxGeometry>
        </mxCell>
        <mxCell id="_rVcD1gw7nrnVvytm9UZ-250" value="offer" style="text;html=1;align=center;verticalAlign=middle;resizable=0;points=[];autosize=1;strokeColor=none;fillColor=none;" vertex="1" parent="1">
          <mxGeometry x="1165" y="743" width="50" height="30" as="geometry" />
        </mxCell>
        <mxCell id="_rVcD1gw7nrnVvytm9UZ-252" value="1..*" style="text;html=1;align=center;verticalAlign=middle;resizable=0;points=[];autosize=1;strokeColor=none;fillColor=none;" vertex="1" parent="1">
          <mxGeometry x="1221" y="768" width="40" height="30" as="geometry" />
        </mxCell>
        <mxCell id="_rVcD1gw7nrnVvytm9UZ-253" value="book" style="text;html=1;align=center;verticalAlign=middle;resizable=0;points=[];autosize=1;strokeColor=none;fillColor=none;" vertex="1" parent="1">
          <mxGeometry x="1405" y="738" width="50" height="30" as="geometry" />
        </mxCell>
        <mxCell id="_rVcD1gw7nrnVvytm9UZ-255" value="1..*" style="text;html=1;align=center;verticalAlign=middle;resizable=0;points=[];autosize=1;strokeColor=none;fillColor=none;" vertex="1" parent="1">
          <mxGeometry x="1395" y="768" width="40" height="30" as="geometry" />
        </mxCell>
        <mxCell id="_rVcD1gw7nrnVvytm9UZ-256" value="1" style="text;html=1;align=center;verticalAlign=middle;resizable=0;points=[];autosize=1;strokeColor=none;fillColor=none;rotation=30;" vertex="1" parent="1">
          <mxGeometry x="1390" y="820" width="30" height="30" as="geometry" />
        </mxCell>
        <mxCell id="_rVcD1gw7nrnVvytm9UZ-258" value="1" style="text;html=1;align=center;verticalAlign=middle;resizable=0;points=[];autosize=1;strokeColor=none;fillColor=none;" vertex="1" parent="1">
          <mxGeometry x="1545" y="780" width="30" height="30" as="geometry" />
        </mxCell>
        <mxCell id="_rVcD1gw7nrnVvytm9UZ-259" value="serve" style="text;html=1;align=center;verticalAlign=middle;resizable=0;points=[];autosize=1;strokeColor=none;fillColor=none;rotation=90;" vertex="1" parent="1">
          <mxGeometry x="1285" y="990" width="50" height="30" as="geometry" />
        </mxCell>
        <mxCell id="_rVcD1gw7nrnVvytm9UZ-261" value="1..*" style="text;html=1;align=center;verticalAlign=middle;resizable=0;points=[];autosize=1;strokeColor=none;fillColor=none;" vertex="1" parent="1">
          <mxGeometry x="1320" y="1020" width="40" height="30" as="geometry" />
        </mxCell>
        <mxCell id="_rVcD1gw7nrnVvytm9UZ-262" value="0..*" style="text;html=1;align=center;verticalAlign=middle;resizable=0;points=[];autosize=1;strokeColor=none;fillColor=none;rotation=-40;" vertex="1" parent="1">
          <mxGeometry x="1125" y="875" width="40" height="30" as="geometry" />
        </mxCell>
        <mxCell id="_rVcD1gw7nrnVvytm9UZ-264" value="" style="endArrow=none;html=1;rounded=0;exitX=1.017;exitY=0.056;exitDx=0;exitDy=0;exitPerimeter=0;entryX=0;entryY=0.5;entryDx=0;entryDy=0;endFill=0;shape=wire;dashed=1;" edge="1" parent="1" source="_rVcD1gw7nrnVvytm9UZ-213" target="_rVcD1gw7nrnVvytm9UZ-210">
          <mxGeometry width="50" height="50" relative="1" as="geometry">
            <mxPoint x="1200" y="890" as="sourcePoint" />
            <mxPoint x="1250" y="840" as="targetPoint" />
          </mxGeometry>
        </mxCell>
        <mxCell id="_rVcD1gw7nrnVvytm9UZ-265" value="1..*" style="text;html=1;align=center;verticalAlign=middle;resizable=0;points=[];autosize=1;strokeColor=none;fillColor=none;" vertex="1" parent="1">
          <mxGeometry x="1220" y="918" width="40" height="30" as="geometry" />
        </mxCell>
        <mxCell id="_rVcD1gw7nrnVvytm9UZ-266" value="1..*" style="text;html=1;align=center;verticalAlign=middle;resizable=0;points=[];autosize=1;strokeColor=none;fillColor=none;" vertex="1" parent="1">
          <mxGeometry x="235" y="58" width="40" height="30" as="geometry" />
        </mxCell>
        <mxCell id="_rVcD1gw7nrnVvytm9UZ-267" value="include" style="text;html=1;align=center;verticalAlign=middle;resizable=0;points=[];autosize=1;strokeColor=none;fillColor=none;rotation=-45;" vertex="1" parent="1">
          <mxGeometry x="1155" y="838" width="60" height="30" as="geometry" />
        </mxCell>
      </root>
    </mxGraphModel>
  </diagram>
</mxfile>
